# xmcd CD database file
#
# Track frame offsets:
#	150
#	18357
#	39427
#	53537
#	72980
#	88252
#	103140
#	117737
#	138100
#	163107
#	183882
#
# Disc length: 2722 seconds
#
# Revision: 1
# Processed by: cddbd v1.5.1PL0 Copyright (c) Steve Scherf et al.
# Submitted via: CDex 1.51
#
DISCID=920aa00b
DTITLE=?????? - ??
DYEAR=2003
DGENRE=Rock
TTITLE0=????
TTITLE1=????
TTITLE2=?????????
TTITLE3=???????
TTITLE4=??
TTITLE5=??
TTITLE6=????
TTITLE7=????
TTITLE8=??
TTITLE9=?????????
TTITLE10=??????
EXTD=YEAR: 2003
EXTT0=
EXTT1=
EXTT2=
EXTT3=
EXTT4=
EXTT5=
EXTT6=
EXTT7=
EXTT8=
EXTT9=
EXTT10=
PLAYORDER=
